<?xml version="1.0" encoding="utf-8"?>
<!-- Generator: Adobe Illustrator 19.2.0, SVG Export Plug-In . SVG Version: 6.00 Build 0)  -->
<svg version="1.1" id="Layer_1" xmlns="http://www.w3.org/2000/svg" xmlns:xlink="http://www.w3.org/1999/xlink" x="0px" y="0px"
	 viewBox="0 0 3058 800" style="enable-background:new 0 0 3058 800;" xml:space="preserve">
<style type="text/css">
	.st0{fill:#2C313A;}
	.st1{fill:none;stroke:#7FB8FF;stroke-width:9;stroke-miterlimit:10;}
	.st2{fill:#7FB8FF;}
	.st3{fill:none;stroke:#7FB8FF;stroke-width:9;stroke-linejoin:bevel;stroke-miterlimit:10;}
	.st4{fill:#FFFFFF;}
	.st5{fill:none;stroke:#2C313A;stroke-miterlimit:10;}
	.st6{fill:none;}
	.st7{font-family:'HelveticaNeue-Thin';}
	.st8{font-size:48px;}
	.st9{font-family:'HelveticaNeue-Light';}
	.st10{font-size:21px;}
</style>
<rect x="2267.5" y="363.5" class="st0" width="1" height="9"/>
<line class="st1" x1="2250.5" y1="314" x2="2214.5" y2="350"/>
<path class="st2" d="M2167.4,291.5l-22.2,27.8c1.4,3.7,2.1,7.6,2.3,11.4v0.1l27-33.7L2167.4,291.5z"/>
<line class="st1" x1="2073.5" y1="308" x2="2037.5" y2="356"/>
<polyline class="st3" points="1843,341 1856.5,368 1870,341 "/>
<rect x="1847.5" y="368" class="st4" width="18" height="9"/>
<path class="st2" d="M1645.4,343.5c1-11-7.8-20.5-18.9-20.5h-8c10.6,0,19.1,9.2,17.9,20.1c-0.9,8.2-7.6,14.9-15.8,15.8
	c-10.8,1.2-20.1-7.3-20.1-17.9h-9c0,15.9,13.8,28.6,30.1,26.8c12.5-1.4,22.5-11.5,23.8-24C1645.4,343.7,1645.4,343.6,1645.4,343.5z"
	/>
<polygon class="st2" points="1138.6,314 1134.1,311.8 1134.1,368 1143.1,368 1143.1,311.8 "/>
<g>
	<path class="st2" d="M902.5,475.8c7.4,0,13.5,6.1,13.5,13.5c0,7.4-6.1,13.5-13.5,13.5s-13.5-6.1-13.5-13.5
		C889,481.9,895.1,475.8,902.5,475.8 M902.5,466.8c-12.4,0-22.5,10.1-22.5,22.5c0,12.4,10.1,22.5,22.5,22.5s22.5-10.1,22.5-22.5
		C925,476.9,915,466.8,902.5,466.8L902.5,466.8z"/>
</g>
<rect x="940.8" y="296" class="st2" width="26.7" height="9"/>
<g>
	<rect x="940.5" y="296" class="st0" width="1" height="9"/>
</g>
<path class="st5" d="M928.6,361.4c4.1,4.1,9.7,6.6,15.9,6.6c12.4,0,22.5-10.1,22.5-22.5V296"/>
<rect x="859.5" y="296" class="st2" width="45" height="9"/>
<path class="st5" d="M822.3,511.8v-22.5c0-12.4,10.1-22.5,22.5-22.5s22.5,10.1,22.5,22.5v22.5"/>
<polygon class="st2" points="298.3,322.8 271.5,322.8 267,332 303.3,332 "/>
<rect x="341.1" y="341.2" class="st2" width="44.8" height="9.7"/>
<rect x="341.1" y="309.4" class="st2" width="35.6" height="9.7"/>
<polygon class="st2" points="401.6,337.5 410.9,356.2 410.9,308.4 401.6,327.7 "/>
<polygon class="st2" points="402.2,326.5 403.1,322 406.3,314.4 410.2,308.9 410.9,308.4 410.1,318.5 406.1,329.3 403.4,329.3 
	402.5,328.2 "/>
<polygon class="st2" points="402.6,338.6 402.6,340.9 404.1,346.2 407.2,351.4 409.9,355.4 410.6,355.6 410.6,354.3 408.5,343.2 "/>
<rect x="464.9" y="296.2" class="st2" width="9" height="72"/>
<line class="st5" x1="248.9" y1="368.2" x2="287.3" y2="291.3"/>
<line class="st5" x1="282.5" y1="291.3" x2="320.9" y2="368.2"/>
<line class="st5" x1="341.1" y1="368" x2="341.1" y2="296"/>
<circle class="st5" cx="359.1" cy="314.2" r="18"/>
<circle class="st5" cx="363.6" cy="345.7" r="22.5"/>
<line class="st5" x1="437.6" y1="372.7" x2="437.6" y2="363.7"/>
<line class="st5" x1="437.6" y1="300.7" x2="437.6" y2="291.7"/>
<line class="st5" x1="562.5" y1="332" x2="562.5" y2="323"/>
<rect x="336.6" y="367" class="st0" width="9" height="1"/>
<rect x="336.6" y="296" class="st0" width="9" height="1"/>
<rect x="315.7" y="367" class="st0" width="9" height="1"/>
<rect x="245" y="367" class="st0" width="9" height="1"/>
<path class="st5" d="M437.6,368.2c-19.9,0-36-16.1-36-36s16.1-36,36-36"/>
<line class="st5" x1="465" y1="363.7" x2="465" y2="291.7"/>
<line class="st5" x1="465" y1="372.7" x2="465" y2="363.7"/>
<path class="st5" d="M464.9,296.2h9c19.9,0,36,16.1,36,36s-16.1,36-36,36h-9"/>
<path class="st5" d="M528.4,346.2"/>
<rect x="528.9" y="296.2" class="st2" width="9" height="71.5"/>
<path class="st5" d="M533.4,367.7"/>
<polyline class="st5" points="528.9,367.7 580.5,367.7 580.5,358.7 "/>
<g>
	<rect x="695.2" y="323.1" class="st0" width="1" height="9"/>
</g>
<path class="st5" d="M1033.7,346.2"/>
<rect x="1034.2" y="296" class="st2" width="9" height="72"/>
<g>
	<rect x="1034.2" y="296" class="st0" width="9" height="1"/>
</g>
<path class="st5" d="M1038.7,367.7"/>
<polyline class="st5" points="1034.2,367.7 1082.9,367.7 1082.9,358.7 "/>
<path class="st5" d="M675.2,489.3"/>
<rect x="675.7" y="439.8" class="st2" width="9" height="72"/>
<g>
	<rect x="675.7" y="439.8" class="st0" width="9" height="1"/>
</g>
<g>
	<rect x="675.7" y="510.8" class="st0" width="9" height="1"/>
</g>
<path class="st5" d="M680.2,511.8"/>
<line class="st5" x1="702.9" y1="511.8" x2="683.2" y2="487.1"/>
<line class="st5" x1="683.2" y1="491.5" x2="702.9" y2="466.8"/>
<path class="st5" d="M579.5,511.8v-22.5c0-12.4,10.1-22.5,22.5-22.5s22.5,10.1,22.5,22.5v22.5"/>
<g>
	<rect x="620" y="510.8" class="st0" width="9" height="1"/>
</g>
<path class="st2" d="M341,489.4c0,7.3,3.5,13.9,9,17.9v-36c-5.5,4.1-9,10.6-9,17.9V489.4z"/>
<rect x="423.8" y="484.8" class="st2" width="45" height="9"/>
<circle class="st5" cx="902.5" cy="489.3" r="22.5"/>
<path class="st5" d="M363.5,511.8c-12.4,0-22.5-10.1-22.5-22.5c0-12.4,10.1-22.5,22.5-22.5"/>
<path class="st5" d="M468.8,493.8v-4.5c0-12.4-10.1-22.5-22.5-22.5s-22.5,10.1-22.5,22.5c0,12.4,10.1,22,22.5,22h22.5v-9"/>
<g>
	<path class="st2" d="M544.1,520.8c0.8,0,1.6,0,2.3,0.1l6.2-10.8c-2.6,1.1-5.5,1.7-8.6,1.7c-0.9,0-1.8-0.1-2.7-0.2l-6.4,11.1
		C537.7,521.5,540.8,520.8,544.1,520.8z"/>
	<path class="st5" d="M566.6,543.3c0,12.4-10.1,22.5-22.5,22.5s-22.5-10.1-22.5-22.5c0-12.4,10.1-22.5,22.5-22.5
		c0.8,0,1.5,0,2.3,0.1c0.3,0,0.6,0.1,0.9,0.1"/>
	<circle class="st5" cx="544.1" cy="489.3" r="22.5"/>
	<path class="st5" d="M561.8,475.6c2.5,0,4.5-2,4.5-4.5"/>
	<path class="st4" d="M552.3,524.6c0.8,0,1.6,0,2.3,0.1l6.2-10.8c-2.6,1.1-5.5,1.7-8.6,1.7c-0.9,0-1.8-0.1-2.7-0.2l-6.4,11.1
		C546,525.3,549,524.6,552.3,524.6z"/>
</g>
<path class="st5" d="M574.5,489.3"/>
<rect x="575" y="439.8" class="st2" width="9" height="72"/>
<path class="st5" d="M1054.3,489.3"/>
<rect x="817.8" y="466.8" class="st2" width="9" height="45"/>
<path class="st5" d="M393.5,511.8c12.4,0,22.5-10.1,22.5-22.5"/>
<rect x="406.5" y="439.8" class="st2" width="9" height="72"/>
<path class="st5" d="M416,489.3c0-12.4-10.1-22.5-22.5-22.5S371,476.9,371,489.3c0,12.4,10.1,22.5,22.5,22.5"/>
<g>
	<path class="st5" d="M1090.1,480.3c0-7.5-6-13.5-13.5-13.5s-13.5,6-13.5,13.5"/>
	<rect x="1054.7" y="466.8" class="st2" width="9" height="45"/>
	<g>
		<rect x="1054.7" y="510.8" class="st0" width="9" height="1"/>
	</g>
	<g>
		<rect x="1085.6" y="480.3" class="st0" width="9" height="1"/>
	</g>
	<g>
		<rect x="1054.7" y="466.8" class="st0" width="9" height="1"/>
	</g>
</g>
<g>
	<g>
		<path class="st2" d="M273.5,507.3v4.5h9v-20.9h-0.1C282,497.6,278.6,503.5,273.5,507.3z"/>
	</g>
	<g>
		<path class="st0" d="M260,512.3c-12.7,0-23-10.3-23-23s10.3-23,23-23c12.7,0,23,10.3,23,23S272.7,512.3,260,512.3z M260,467.3
			c-12.1,0-22,9.9-22,22c0,12.1,9.9,22,22,22s22-9.9,22-22C282,477.2,272.2,467.3,260,467.3z"/>
	</g>
	<g>
		<g>
			<rect x="273.5" y="510.8" class="st0" width="9" height="1"/>
		</g>
	</g>
</g>
<g>
	<path class="st5" d="M311.2,511.8c-12.4,0-22.5-10.1-22.5-22.5"/>
	<rect x="289.2" y="439.8" class="st2" width="9" height="72"/>
	<path class="st5" d="M288.7,489.3c0-12.4,10.1-22.5,22.5-22.5s22.5,10.1,22.5,22.5c0,12.4-10.1,22.5-22.5,22.5"/>
	<g>
		<rect x="289.2" y="510.8" class="st0" width="9" height="1"/>
	</g>
	<g>
		<rect x="289.2" y="439.8" class="st0" width="9" height="1"/>
	</g>
</g>
<g>
	<rect x="406.5" y="510.8" class="st0" width="9" height="1"/>
</g>
<g>
	<rect x="406.5" y="439.8" class="st0" width="9" height="1"/>
</g>
<g>
	<g>
		<path class="st5" d="M959.8,466.8c-12.4,0-22.5,10.1-22.5,22.5"/>
		<rect x="937.8" y="466.8" class="st2" width="9" height="72"/>
		<path class="st5" d="M937.3,489.3c0,12.4,10.1,22.5,22.5,22.5s22.5-10.1,22.5-22.5c0-12.4-10.1-22.5-22.5-22.5"/>
	</g>
	<g>
		<rect x="937.8" y="537.8" class="st0" width="9" height="1"/>
	</g>
	<g>
		<rect x="937.8" y="466.8" class="st0" width="9" height="1"/>
	</g>
</g>
<g>
	<path class="st5" d="M1017.7,466.8c12.4,0,22.5,10.1,22.5,22.5"/>
	<rect x="1030.7" y="466.8" class="st2" width="9" height="72"/>
	<path class="st5" d="M1040.2,489.3c0,12.4-10.1,22.5-22.5,22.5s-22.5-10.1-22.5-22.5c0-12.4,10.1-22.5,22.5-22.5"/>
	<line class="st5" x1="1035.2" y1="538.5" x2="1048.6" y2="520.2"/>
	<g>
		<rect x="1030.7" y="537.8" class="st0" width="9" height="1"/>
	</g>
	<g>
		<rect x="1030.7" y="466.8" class="st0" width="9" height="1"/>
	</g>
</g>
<g>
	<rect x="575" y="510.8" class="st0" width="9" height="1"/>
</g>
<g>
	<rect x="575" y="439.8" class="st0" width="9" height="1"/>
</g>
<g>
	<rect x="817.8" y="466.8" class="st0" width="9" height="1"/>
</g>
<g>
	<rect x="817.8" y="510.8" class="st0" width="9" height="1"/>
</g>
<g>
	<rect x="862.8" y="510.8" class="st0" width="9" height="1"/>
</g>
<g>
	<rect x="1298" y="465.3" class="st4" width="2.1" height="2.2"/>
	
		<rect x="1273.9" y="483.7" transform="matrix(0.3709 -0.9287 0.9287 0.3709 358.6636 1505.7706)" class="st2" width="33.7" height="9"/>
	
		<rect x="1267.3" y="471.3" transform="matrix(0.9287 -0.3709 0.3709 0.9287 -90.3351 506.5247)" class="st2" width="9" height="33.7"/>
	<polyline class="st5" points="1263.3,467 1281.3,512 1299.3,467 	"/>
	<rect x="1298" y="465.5" class="st4" width="2.1" height="2.2"/>
	<rect x="1262.5" y="465.5" class="st4" width="2.1" height="2.2"/>
	<g>
		<rect x="1258.8" y="467" class="st0" width="9" height="1"/>
	</g>
	<g>
		<rect x="1294.8" y="467" class="st0" width="9" height="1"/>
	</g>
</g>
<g>
	<path class="st5" d="M1245.2,489.3"/>
	<rect x="1235.2" y="466.8" class="st2" width="9" height="45"/>
	<path class="st5" d="M1239.7,466.8v22.5c0,12.4-10.1,22.5-22.5,22.5s-22.5-10.1-22.5-22.5v-22.5"/>
	<g>
		<rect x="1235.2" y="510.8" class="st0" width="9" height="1"/>
	</g>
	<g>
		<rect x="1235.2" y="466.8" class="st0" width="9" height="1"/>
	</g>
	<g>
		<rect x="1190.2" y="466.8" class="st0" width="9" height="1"/>
	</g>
</g>
<g>
	<rect x="363" y="462.3" class="st0" width="1" height="9"/>
</g>
<g>
	<rect x="363" y="507.3" class="st0" width="1" height="9"/>
</g>
<g>
	<polygon class="st2" points="772.6,474.2 768,470.3 764.8,468.8 764.8,493.9 773.8,493.9 773.8,475.4 	"/>
	<path class="st5" d="M733.5,511.8v-22.5c0-12.4,10.1-22.5,22.5-22.5c7.4,0,13.9,3.5,18,9"/>
	<path class="st5" d="M769.3,471.2c3.7-2.8,8.4-4.4,13.4-4.4c12.4,0,22.5,10.1,22.5,22.5v22.5"/>
	<path class="st5" d="M739.2,475.1c-1.8-1.8-4.6-1.8-6.4,0"/>
	<g>
		<rect x="729" y="510.8" class="st0" width="9" height="1"/>
	</g>
	<g>
		<rect x="800.7" y="510.8" class="st0" width="9" height="1"/>
	</g>
	<g>
		<rect x="764.8" y="492.9" class="st0" width="9" height="1"/>
	</g>
</g>
<rect x="635" y="454.2" class="st2" width="9" height="9"/>
<g>
	<rect x="635" y="454.1" class="st0" width="9" height="1"/>
</g>
<g>
	<line class="st5" x1="661.6" y1="516.3" x2="661.6" y2="466.8"/>
	<path class="st5" d="M661.6,516.3"/>
	<g>
		<rect x="657.1" y="454.1" class="st2" width="9" height="9"/>
		<g>
			<rect x="657.1" y="454.1" class="st0" width="9" height="1"/>
		</g>
	</g>
</g>
<line class="st5" x1="639.5" y1="511.8" x2="639.5" y2="466.8"/>
<g>
	<path class="st5" d="M713.3,489.3"/>
	<rect x="713.8" y="439.8" class="st2" width="9" height="72"/>
	<g>
		<rect x="713.8" y="439.8" class="st0" width="9" height="1"/>
	</g>
	<g>
		<rect x="713.8" y="510.8" class="st0" width="9" height="1"/>
	</g>
	<path class="st5" d="M718.3,511.8"/>
</g>
<line class="st5" x1="579.5" y1="511.8" x2="579.5" y2="439.8"/>
<g>
	<rect x="480.3" y="466.8" class="st2" width="36.5" height="9"/>
	<line class="st5" x1="480.3" y1="462.3" x2="480.3" y2="511.8"/>
	<g>
		<rect x="515.8" y="466.8" class="st0" width="1" height="9"/>
	</g>
	<path class="st5" d="M516.3,462.3c0-9.9-8.1-18-18-18s-18,8.1-18,18"/>
	<line class="st5" x1="480.3" y1="471.3" x2="498.3" y2="471.3"/>
</g>
<g>
	<rect x="1143.6" y="466.8" class="st2" width="36" height="9"/>
	<line class="st5" x1="1161.6" y1="511.8" x2="1161.6" y2="444.3"/>
	<g>
		<rect x="1157.1" y="510.8" class="st0" width="9" height="1"/>
	</g>
	<g>
		<rect x="1143.6" y="466.8" class="st0" width="1" height="9"/>
	</g>
	<g>
		<rect x="1178.6" y="466.8" class="st0" width="1" height="9"/>
	</g>
	<line class="st5" x1="1161.6" y1="471.3" x2="1175.1" y2="471.3"/>
	<line class="st5" x1="1147.9" y1="471.3" x2="1161.6" y2="471.3"/>
</g>
<g>
	<g>
		<rect x="1104" y="497.9" class="st0" width="9" height="1"/>
	</g>
	<g>
		<rect x="1126.8" y="469.9" transform="matrix(0.6965 -0.7176 0.7176 0.6965 5.8253 954.5319)" class="st0" width="9" height="1"/>
	</g>
	<path class="st5" d="M1116.6,489.3"/>
	<rect x="1117.1" y="467.3" class="st2" width="9" height="44.1"/>
	<path class="st5" d="M1121.6,511.8"/>
	<path class="st5" d="M1108.5,498.3c0,7.3,5.8,13.2,13,13.5c6.5,0.2,12.4-4.5,13.7-10.9c0.5-2.7,0.2-5.3-0.7-7.6
		c-0.8-1.9-2.6-3-4.6-3H1115c-1.6,0-3.1-0.7-4-2c-3.7-5.1-3.4-12.3,1-17.1c5.1-5.5,13.6-5.8,19.1-0.7"/>
</g>
<g>
	<rect x="1514" y="462.3" class="st0" width="1" height="9"/>
</g>
<g>
	<rect x="1549" y="507.3" class="st0" width="1" height="9"/>
</g>
<g>
	<rect x="1408.9" y="466.6" transform="matrix(0.7809 -0.6247 0.6247 0.7809 17.9055 985.2514)" class="st0" width="9" height="1"/>
</g>
<g>
	
		<rect x="1444.2" y="510.9" transform="matrix(0.7809 -0.6247 0.6247 0.7809 -2.0034 1017.0383)" class="st0" width="9" height="1"/>
</g>
<g>
	
		<rect x="1448.3" y="462.6" transform="matrix(0.6247 -0.7809 0.7809 0.6247 179.0105 1306.605)" class="st0" width="1" height="9"/>
</g>
<g>
	
		<rect x="1412.8" y="506.9" transform="matrix(0.6247 -0.7809 0.7809 0.6247 131.0704 1295.601)" class="st0" width="1" height="9"/>
</g>
<g>
	<path class="st5" d="M1413.3,466.8"/>
	
		<rect x="1408.4" y="484.8" transform="matrix(0.6247 -0.7809 0.7809 0.6247 154.9568 1301.0009)" class="st2" width="45" height="9"/>
	<line class="st5" x1="1449" y1="511.8" x2="1413" y2="466.8"/>
	<line class="st5" x1="1413" y1="511.8" x2="1449" y2="466.8"/>
</g>
<path class="st5" d="M1256.9,363.6"/>
<rect x="1219" y="309.5" transform="matrix(0.7809 -0.6247 0.6247 0.7809 60.6892 837.0811)" class="st2" width="9" height="45"/>
<path class="st5" d="M1480.2,377.1"/>
<g>
	<g>
		<path class="st2" d="M1490.9,484.3c1.1,1.8,1.9,3.7,2.6,5.7l16.4-20.4l-7-5.6l-13.9,17.4C1489.6,482.2,1490.3,483.2,1490.9,484.3z
			"/>
	</g>
	<g>
		
			<rect x="1505.7" y="462.6" transform="matrix(0.6282 -0.7781 0.7781 0.6282 196.5974 1345.5867)" class="st0" width="1" height="9"/>
	</g>
	<g>
		<rect x="1477" y="529.1" transform="matrix(0.8618 -0.5073 0.5073 0.8618 -66.4481 823.2546)" class="st0" width="1" height="9"/>
	</g>
	<g>
		
			<rect x="1460.3" y="466.1" transform="matrix(0.1782 -0.984 0.984 0.1782 744.6916 1824.7957)" class="st0" width="9" height="1"/>
	</g>
	<path class="st5" d="M1465.2,466.7c10.4,1.6,20.1,7.7,25.7,17.6c9.9,17.2,4,39.2-13.2,49.2"/>
</g>
<g>
	
		<rect x="2170.3" y="290.2" transform="matrix(0.6282 -0.7781 0.7781 0.6282 577.8693 1798.5751)" class="st0" width="1" height="9"/>
</g>
<g>
	
		<rect x="1509.4" y="484.8" transform="matrix(0.6247 -0.7809 0.7809 0.6247 192.8601 1379.8558)" class="st2" width="45" height="9"/>
	<polyline class="st5" points="1514,466.8 1550,466.8 1514,511.8 1550,511.8 	"/>
</g>
<rect x="319.5" y="368" class="st4" width="9" height="9"/>
<rect x="245.5" y="368" class="st4" width="9" height="9"/>
<polyline class="st5" points="528.9,296.5 577.6,296.5 577.6,305.5 "/>
<line class="st5" x1="562.5" y1="327.7" x2="537.9" y2="327.7"/>
<rect x="769.5" y="296" class="st2" width="9" height="72"/>
<path class="st5" d="M774.3,367.7"/>
<line class="st5" x1="814.5" y1="327.7" x2="778.5" y2="327.7"/>
<line class="st5" x1="632.1" y1="332" x2="632.1" y2="323"/>
<g>
	<rect x="724.9" y="305.7" transform="matrix(0.7071 -0.7071 0.7071 0.7071 -2.9035 605.4353)" class="st0" width="9" height="1"/>
</g>
<path class="st5" d="M599.2,346.2"/>
<rect x="598.5" y="296.2" class="st2" width="9" height="71.5"/>
<path class="st5" d="M604.2,367.7"/>
<polyline class="st5" points="598.5,296.5 647.2,296.5 647.2,305.5 "/>
<line class="st5" x1="632.1" y1="327.7" x2="607.5" y2="327.7"/>
<line class="st5" x1="822.3" y1="467.3" x2="822.3" y2="511.8"/>
<path class="st5" d="M646.2,522.7c1.6,1.6,3.9,2.6,6.4,2.6c5,0,9-4,9-9"/>
<path class="st5" d="M695.2,332"/>
<g>
	<rect x="598.5" y="367" class="st0" width="9" height="1"/>
</g>
<rect x="814.6" y="296" class="st2" width="9" height="72"/>
<path class="st5" d="M695.2,328"/>
<path class="st5" d="M729.7,306.6c-14.1-14.1-36.9-14.1-50.9,0c-14.1,14.1-14.1,36.9,0,50.9c14.1,14.1,36.9,14.1,50.9,0
	c8.1-8.1,11.6-19.2,10.3-29.8h-1.6h-43.2"/>
<rect x="730.7" y="328.1" class="st2" width="9" height="39.9"/>
<g>
	<rect x="730.7" y="367" class="st0" width="9" height="1"/>
</g>
<g>
	<rect x="814.6" y="296" class="st0" width="9" height="1"/>
</g>
<g>
	<rect x="769.5" y="296" class="st0" width="9" height="1"/>
</g>
<g>
	<rect x="814.6" y="367" class="st0" width="9" height="1"/>
</g>
<g>
	<rect x="1098.1" y="367" class="st0" width="9" height="1"/>
</g>
<g>
	<rect x="1170.1" y="367" class="st0" width="9" height="1"/>
</g>
<g>
	<rect x="1192" y="367" class="st0" width="9" height="1"/>
</g>
<g>
	<rect x="1246" y="296" class="st0" width="9" height="1"/>
</g>
<rect x="985.5" y="296" class="st2" width="9" height="72"/>
<g>
	<rect x="985.5" y="296" class="st0" width="9" height="1"/>
</g>
<g>
	<rect x="985.5" y="367" class="st0" width="9" height="1"/>
</g>
<g>
	<rect x="769.5" y="367" class="st0" width="9" height="1"/>
</g>
<rect x="1675.5" y="296" class="st2" width="9" height="72"/>
<rect x="1783.5" y="296" class="st2" width="9" height="72"/>
<rect x="1956" y="296" class="st2" width="9" height="72"/>
<path class="st5" d="M1710.2,377.1"/>
<g>
	<rect x="1675.5" y="367" class="st0" width="9" height="1"/>
</g>
<g>
	<rect x="1657.5" y="296" class="st0" width="1" height="9"/>
</g>
<g>
	<rect x="1701.5" y="296" class="st0" width="1" height="9"/>
</g>
<g>
	<rect x="1657.5" y="296" class="st0" width="45" height="1"/>
</g>
<g>
	<rect x="859.5" y="296" class="st0" width="1" height="9"/>
</g>
<g>
	<rect x="903.5" y="296" class="st0" width="1" height="9"/>
</g>
<rect x="859.5" y="359" class="st2" width="45" height="9"/>
<g>
	<rect x="859.5" y="359" class="st0" width="1" height="9"/>
</g>
<g>
	<rect x="903.5" y="359" class="st0" width="1" height="9"/>
</g>
<line class="st5" x1="882" y1="368" x2="882" y2="296"/>
<line class="st5" x1="1030.8" y1="368" x2="991.7" y2="323.7"/>
<line class="st5" x1="991.7" y1="330.8" x2="1021.3" y2="296"/>
<g>
	<line class="st5" x1="1357.5" y1="511.8" x2="1357.5" y2="475.8"/>
	<rect x="1375.5" y="466.8" class="st2" width="9" height="45"/>
	<path class="st5" d="M1357.5,511.8c12.4,0,22.5-10.1,22.5-22.5v-22.5"/>
	<path class="st5" d="M1375.5,502.8c0,5,4,9,9,9"/>
	<g>
		<rect x="1375.5" y="466.8" class="st0" width="9" height="1"/>
	</g>
	<g>
		<rect x="1330.5" y="466.8" class="st0" width="9" height="1"/>
	</g>
	<g>
		<rect x="1353" y="475.8" class="st0" width="9" height="1"/>
	</g>
	<path class="st5" d="M1335,466.8v22.5c0,12.4,10.1,22.5,22.5,22.5"/>
	<path class="st5" d="M1380,489.3c0,12.4-10.1,22.5-22.5,22.5l0,0c-12.4,0-22.5-10.1-22.5-22.5"/>
</g>
<polyline class="st5" points="1102.6,368 1102.6,296 1138.6,314 1174.6,296 1174.6,368 "/>
<polyline class="st5" points="1196.5,368 1196.5,296 1250.5,368 1250.5,296 "/>
<g>
	<path class="st2" d="M1304.5,305c14.9,0,27,12.1,27,27s-12.1,27-27,27s-27-12.1-27-27S1289.6,305,1304.5,305 M1304.5,296
		c-19.9,0-36,16.1-36,36s16.1,36,36,36s36-16.1,36-36S1324.4,296,1304.5,296L1304.5,296z"/>
</g>
<g>
	<g>
		<path class="st0" d="M1304.5,297c19.3,0,35,15.7,35,35s-15.7,35-35,35s-35-15.7-35-35S1285.2,297,1304.5,297 M1304.5,296
			c-19.9,0-36,16.1-36,36s16.1,36,36,36s36-16.1,36-36S1324.4,296,1304.5,296L1304.5,296z"/>
	</g>
</g>
<path class="st5" d="M1385.5,296c-14.9,0-27,12.1-27,27"/>
<rect x="1359" y="296" class="st2" width="9" height="72"/>
<path class="st5" d="M1358.5,323c0,14.9,12.1,27,27,27s27-12.1,27-27s-12.1-27-27-27"/>
<g>
	<rect x="1359" y="367" class="st0" width="9" height="1"/>
</g>
<g>
	<rect x="1134.1" y="367" class="st0" width="9" height="1"/>
</g>
<g>
	<rect x="1591.5" y="341" class="st0" width="9" height="1"/>
</g>
<g>
	<rect x="1716" y="296" class="st0" width="9" height="1"/>
</g>
<g>
	<rect x="1783.5" y="296" class="st0" width="9" height="1"/>
</g>
<g>
	<rect x="1783.5" y="367" class="st0" width="9" height="1"/>
</g>
<g>
	
		<rect x="1618.7" y="299.2" transform="matrix(0.7071 -0.7071 0.7071 0.7071 263.4924 1235.5353)" class="st0" width="9" height="1"/>
</g>
<g>
	<rect x="1359" y="296" class="st0" width="9" height="1"/>
</g>
<path class="st5" d="M1549.5,296c-14.9,0-27,12.1-27,27"/>
<rect x="1523" y="296" class="st2" width="9" height="72"/>
<path class="st5" d="M1522.5,323c0,14.9,12.1,27,27,27s27-12.1,27-27s-12.1-27-27-27"/>
<g>
	<rect x="1523" y="367" class="st0" width="9" height="1"/>
</g>
<g>
	<rect x="1523" y="296" class="st0" width="9" height="1"/>
</g>
<g>
	<path class="st2" d="M1466.5,305c14.9,0,27,12.1,27,27s-12.1,27-27,27s-27-12.1-27-27S1451.6,305,1466.5,305 M1466.5,296
		c-19.9,0-36,16.1-36,36s16.1,36,36,36s36-16.1,36-36S1486.4,296,1466.5,296L1466.5,296z"/>
</g>
<g>
	<g>
		<path class="st0" d="M1466.5,297c19.3,0,35,15.7,35,35s-15.7,35-35,35s-35-15.7-35-35S1447.2,297,1466.5,297 M1466.5,296
			c-19.9,0-36,16.1-36,36s16.1,36,36,36s36-16.1,36-36S1486.4,296,1466.5,296L1466.5,296z"/>
	</g>
</g>
<line class="st5" x1="1466.5" y1="332" x2="1502.5" y2="368"/>
<line class="st5" x1="1540.5" y1="332" x2="1576.5" y2="368"/>
<path class="st5" d="M1623.5,300c-5.6-5.6-15-5.2-20.1,1.2c-3.8,4.8-3.9,11.7-0.2,16.5c2.7,3.5,6.6,5.3,10.6,5.3h13.1
	c10.5,0,19,8.7,18.5,19.2c0,0.1,0,0.3,0,0.4c-0.8,13.5-11.7,24.5-25.2,25.3c-15.7,1-28.8-11.4-28.8-26.9"/>
<path class="st5" d="M1720.5,296v40.5c0,17.4,14.1,31.5,31.5,31.5s31.5-14.1,31.5-31.5V296"/>
<polyline class="st5" points="1820.5,296 1856.5,368 1892.5,296 "/>
<polyline class="st5" points="1924.5,296 1951.5,368 1960.5,332 1969.5,368 1996.5,296 "/>
<g>
	<rect x="1817.3" y="294.8" class="st4" width="5.6" height="1.8"/>
	<g>
		<rect x="1816.5" y="296" class="st0" width="9" height="1"/>
	</g>
</g>
<g>
	<rect x="1888.3" y="294.8" class="st4" width="5.6" height="1.8"/>
	<g>
		<rect x="1887.5" y="296" class="st0" width="9" height="1"/>
	</g>
</g>
<g>
	<rect x="1921.3" y="294.8" class="st4" width="5.6" height="1.8"/>
	<g>
		<rect x="1920.5" y="296" class="st0" width="9" height="1"/>
	</g>
</g>
<g>
	<rect x="1992.3" y="294.8" class="st4" width="5.6" height="1.8"/>
	<g>
		<rect x="1991.5" y="296" class="st0" width="9" height="1"/>
	</g>
</g>
<g>
	<rect x="2111.5" y="291.5" class="st0" width="1" height="9"/>
</g>
<g>
	<rect x="2196.5" y="291.5" class="st0" width="1" height="9"/>
</g>
<g>
	<rect x="2111.5" y="363.5" class="st0" width="1" height="9"/>
</g>
<g>
	
		<rect x="2024.2" y="296.1" transform="matrix(0.7918 -0.6107 0.6107 0.7918 241.1564 1300.6951)" class="st0" width="9" height="1"/>
</g>
<g>
	
		<rect x="2077.6" y="367.2" transform="matrix(0.7918 -0.6107 0.6107 0.7918 208.8505 1348.1489)" class="st0" width="9" height="1"/>
</g>
<g>
	<rect x="2081.6" y="292" transform="matrix(0.6107 -0.7918 0.7918 0.6107 575.6963 1764.1453)" class="st0" width="1" height="9"/>
</g>
<g>
	
		<rect x="2028.1" y="363.2" transform="matrix(0.6107 -0.7918 0.7918 0.6107 498.5413 1749.4232)" class="st0" width="1" height="9"/>
</g>
<line class="st5" x1="2028.5" y1="296" x2="2082.5" y2="368"/>
<line class="st5" x1="2082.5" y1="296" x2="2028.5" y2="368"/>
<path class="st5" d="M2111.5,296c9.2,0,18.4,3.5,25.5,10.5c14.1,14.1,14.1,36.9,0,50.9c-7,7-16.2,10.5-25.4,10.5"/>
<polyline class="st5" points="2196.5,296 2268.5,296 2196.5,368 2268.5,368 "/>
<g>
	<rect x="1611.6" y="448.8" class="st2" width="9" height="9"/>
	<g>
		<rect x="1611.6" y="448.8" class="st0" width="9" height="1"/>
	</g>
	<path class="st5" d="M1616.1,457.8c0,5-4,9-9,9"/>
</g>
<g>
	<g>
		<rect x="1651.2" y="448.8" class="st2" width="9" height="9"/>
		<g>
			<rect x="1651.2" y="448.8" class="st0" width="9" height="1"/>
		</g>
		<path class="st5" d="M1655.7,457.8c0,5-4,9-9,9"/>
	</g>
	<g>
		<rect x="1664.7" y="448.8" class="st2" width="9" height="9"/>
		<g>
			<rect x="1664.7" y="448.8" class="st0" width="9" height="1"/>
		</g>
		<path class="st5" d="M1669.2,457.8c0,5-4,9-9,9"/>
	</g>
</g>
<g>
	<g>
		<rect x="1714.3" y="457.8" class="st2" width="9" height="9"/>
		<g>
			<rect x="1714.2" y="465.8" class="st0" width="9" height="1"/>
		</g>
		<path class="st5" d="M1718.7,457.8c0-5,4-9,9-9"/>
	</g>
	<g>
		<rect x="1700.8" y="457.8" class="st2" width="9" height="9"/>
		<g>
			<rect x="1700.7" y="465.8" class="st0" width="9" height="1"/>
		</g>
		<path class="st5" d="M1705.2,457.8c0-5,4-9,9-9"/>
	</g>
</g>
<g>
	<rect x="1591.5" y="457.8" class="st2" width="9" height="9"/>
	<g>
		<rect x="1591.5" y="465.8" class="st0" width="9" height="1"/>
	</g>
	<path class="st5" d="M1596,457.8c0-5,4-9,9-9"/>
</g>
<rect x="1759.3" y="502.8" class="st2" width="9" height="9"/>
<g>
	<rect x="1759.2" y="510.8" class="st0" width="9" height="1"/>
</g>
<line class="st5" x1="1763.7" y1="439.8" x2="1763.7" y2="499.1"/>
<rect x="1817.8" y="502.8" class="st2" width="9" height="9"/>
<g>
	<rect x="1817.7" y="510.8" class="st0" width="9" height="1"/>
</g>
<path class="st5" d="M1822.2,497.6"/>
<path class="st5" d="M1822.2,438.3"/>
<path class="st5" d="M1806.3,478.2c-9.4-9.4-8.7-25,1.9-33.5c8.2-6.5,20-6.5,28.1,0.1c5.6,4.5,8.4,11,8.4,17.5l0,0
	c0,7.5-6,13.5-13.5,13.5l0,0c-5,0-9,4-9,9v4.5v8.3"/>
<rect x="2458" class="st0" width="600" height="800"/>
<rect x="2493" y="34" class="st6" width="528" height="404.4"/>
<text transform="matrix(1 0 0 1 2493 68.2715)"><tspan x="0" y="0" class="st4 st7 st8">Joy is free to use.</tspan><tspan x="0" y="48" class="st4 st9 st10">Every shape is based on a 72x72 px grid and is built using </tspan><tspan x="0" y="84" class="st4 st9 st10">basic shapes. The serifs are 1 grid unit wide and </tspan><tspan x="0" y="120" class="st4 st9 st10">sometimes expand beyond the containing grid.</tspan><tspan x="0" y="168" class="st4 st9 st10">The shapes, paths and clipping were left live and it is </tspan><tspan x="0" y="204" class="st4 st9 st10">encouraged to take this font and make it your own. Edit it, </tspan><tspan x="0" y="240" class="st4 st9 st10">chop it up, make it cooler.</tspan><tspan x="0" y="288" class="st4 st9 st10">It is reccomended that you use this font as an svg, </tspan><tspan x="0" y="324" class="st4 st9 st10">hand-set the characters and export using Illustrator’s svg </tspan><tspan x="0" y="360" class="st4 st9 st10">web function.</tspan></text>
<rect x="2493" y="692" class="st6" width="528" height="72"/>
<text transform="matrix(1 0 0 1 2493 706.9937)"><tspan x="0" y="0" class="st4 st9 st10">Created by Jonathan Haggard</tspan><tspan x="0" y="48" class="st4 st9 st10">jonathanhaggard.com</tspan></text>
</svg>
